<svg id="svg" version="1.1" xmlns="http://www.w3.org/2000/svg" xmlns:xlink="http://www.w3.org/1999/xlink" width="400" height="400" viewBox="0, 0, 400,400"><g id="svgg"><path id="path0" d="M198.200 109.013 C 197.320 109.535,196.150 110.192,195.600 110.475 C 195.050 110.757,194.365 111.305,194.077 111.694 C 193.790 112.082,193.322 112.400,193.039 112.400 C 192.755 112.400,192.102 112.765,191.587 113.211 C 191.073 113.657,190.236 114.126,189.726 114.254 C 189.217 114.382,188.800 114.613,188.800 114.766 C 188.800 115.183,185.260 117.600,184.650 117.600 C 184.361 117.600,183.793 117.966,183.389 118.413 C 182.984 118.860,181.665 119.791,180.458 120.481 C 179.251 121.172,177.979 121.988,177.631 122.293 C 176.661 123.149,174.008 124.800,173.605 124.800 C 173.407 124.800,173.010 125.131,172.723 125.535 C 172.211 126.254,171.111 126.946,168.500 128.191 C 167.785 128.532,167.200 128.998,167.200 129.226 C 167.200 129.454,166.615 129.899,165.900 130.215 C 165.185 130.530,163.880 131.324,163.000 131.979 C 162.120 132.634,160.869 133.470,160.220 133.837 C 159.570 134.204,158.792 134.750,158.491 135.052 C 158.190 135.353,157.680 135.600,157.359 135.600 C 157.038 135.600,156.673 135.865,156.549 136.188 C 156.425 136.511,155.711 136.997,154.962 137.268 C 154.213 137.539,153.600 137.887,153.600 138.041 C 153.600 138.335,152.286 139.224,147.500 142.166 C 146.455 142.809,145.600 143.470,145.600 143.636 C 145.600 143.802,144.986 144.141,144.235 144.388 C 143.485 144.636,142.770 145.100,142.648 145.419 C 142.525 145.739,142.177 146.000,141.875 146.000 C 141.572 146.000,141.002 146.355,140.609 146.790 C 140.216 147.224,139.513 147.699,139.047 147.845 C 138.314 148.074,137.440 148.674,135.315 150.408 C 135.048 150.625,134.328 151.021,133.715 151.286 C 132.653 151.746,130.897 152.968,129.600 154.151 C 129.270 154.452,128.619 154.816,128.153 154.960 C 127.687 155.103,126.984 155.576,126.591 156.010 C 126.198 156.445,125.662 156.800,125.400 156.800 C 125.138 156.800,124.607 157.150,124.221 157.577 C 123.834 158.005,122.996 158.469,122.359 158.609 C 121.721 158.749,121.200 159.020,121.200 159.210 C 121.200 159.629,117.099 162.400,116.478 162.400 C 116.237 162.400,115.896 162.646,115.720 162.946 C 115.544 163.246,114.791 163.831,114.048 164.246 C 111.628 165.595,111.217 165.861,110.400 166.600 C 109.489 167.424,108.392 168.098,106.500 168.995 C 105.785 169.334,105.200 169.785,105.200 169.997 C 105.200 170.210,104.525 170.743,103.700 171.183 C 100.558 172.857,100.400 173.139,100.400 177.100 C 100.400 180.539,100.438 180.689,101.419 181.136 C 103.069 181.888,297.579 181.796,298.609 181.043 C 300.947 179.334,298.563 170.800,295.747 170.800 C 295.462 170.800,295.035 170.440,294.800 170.000 C 294.565 169.560,294.046 169.200,293.648 169.200 C 293.250 169.200,292.598 168.840,292.200 168.400 C 291.802 167.960,291.265 167.600,291.008 167.600 C 290.750 167.600,290.117 167.150,289.600 166.600 C 289.083 166.050,288.492 165.600,288.286 165.600 C 287.756 165.600,284.000 163.125,284.000 162.776 C 284.000 162.617,283.595 162.385,283.100 162.260 C 282.243 162.044,281.698 161.688,279.264 159.755 C 278.679 159.290,277.819 158.790,277.353 158.645 C 276.887 158.499,276.184 158.024,275.791 157.590 C 275.398 157.155,274.862 156.800,274.600 156.800 C 274.338 156.800,273.798 156.440,273.400 156.000 C 273.002 155.560,272.443 155.200,272.159 155.200 C 271.874 155.200,271.156 154.750,270.562 154.200 C 269.969 153.650,269.357 153.200,269.203 153.200 C 269.049 153.200,268.507 152.840,268.000 152.400 C 267.493 151.960,266.854 151.600,266.581 151.600 C 266.308 151.600,265.660 151.153,265.142 150.607 C 264.624 150.061,263.975 149.611,263.700 149.607 C 263.425 149.603,262.885 149.319,262.500 148.976 C 261.440 148.032,256.322 144.752,255.300 144.363 C 254.805 144.174,254.400 143.826,254.400 143.589 C 254.400 143.353,253.770 142.896,253.000 142.574 C 252.230 142.252,251.600 141.812,251.600 141.595 C 251.600 141.378,251.355 141.200,251.055 141.200 C 250.755 141.200,249.831 140.660,249.000 140.000 C 248.169 139.340,247.323 138.800,247.118 138.800 C 246.645 138.800,243.903 136.767,243.480 136.102 C 243.304 135.826,242.963 135.600,242.722 135.600 C 242.480 135.600,241.298 134.925,240.095 134.100 C 238.892 133.275,237.613 132.422,237.254 132.205 C 236.894 131.987,235.634 131.177,234.454 130.405 C 233.273 129.632,232.013 128.824,231.654 128.610 C 229.161 127.122,227.729 126.104,227.277 125.500 C 226.990 125.115,226.433 124.800,226.040 124.800 C 225.646 124.800,224.801 124.350,224.162 123.800 C 223.523 123.251,222.878 122.801,222.729 122.800 C 222.579 122.800,222.219 122.573,221.929 122.295 C 221.638 122.018,220.950 121.566,220.400 121.292 C 219.850 121.018,218.410 120.076,217.200 119.198 C 215.990 118.320,214.846 117.601,214.658 117.601 C 214.323 117.600,212.424 116.184,211.166 114.998 C 210.818 114.669,210.264 114.400,209.936 114.400 C 209.608 114.400,208.917 113.950,208.400 113.400 C 207.883 112.850,207.220 112.400,206.926 112.400 C 206.633 112.400,206.084 112.040,205.707 111.600 C 205.330 111.160,204.806 110.800,204.542 110.800 C 204.278 110.800,203.552 110.395,202.929 109.900 C 201.826 109.023,200.117 107.967,199.905 108.032 C 199.847 108.050,199.080 108.491,198.200 109.013 M204.372 132.464 C 205.817 132.939,207.372 133.659,207.826 134.064 C 208.280 134.469,208.812 134.800,209.009 134.800 C 209.723 134.800,213.345 138.995,214.459 141.112 C 216.135 144.298,216.161 151.079,214.510 154.342 C 212.929 157.468,207.875 162.383,206.231 162.395 C 205.809 162.398,205.115 162.715,204.690 163.100 C 203.755 163.945,196.918 164.127,195.959 163.331 C 195.648 163.074,194.654 162.608,193.749 162.296 C 192.845 161.985,191.783 161.476,191.388 161.165 C 189.658 159.801,186.400 156.391,186.400 155.943 C 186.400 155.673,185.995 155.020,185.500 154.494 C 184.654 153.593,184.600 153.195,184.600 147.858 C 184.600 142.576,184.663 142.101,185.500 141.036 C 185.995 140.407,186.400 139.729,186.400 139.529 C 186.400 139.023,190.570 134.800,191.069 134.800 C 191.293 134.800,191.799 134.444,192.193 134.008 C 192.587 133.572,193.560 133.097,194.355 132.951 C 195.150 132.806,196.155 132.442,196.589 132.143 C 197.762 131.335,201.394 131.485,204.372 132.464 M199.004 138.793 C 198.664 139.450,197.864 140.256,197.227 140.586 C 193.558 142.484,195.223 147.223,200.177 148.982 C 203.534 150.174,202.241 153.200,198.375 153.200 C 194.928 153.200,194.716 153.577,197.157 155.368 C 198.235 156.160,199.220 157.076,199.346 157.404 C 199.726 158.395,200.356 158.080,200.980 156.586 C 201.375 155.641,202.017 154.985,202.912 154.611 C 206.571 153.082,204.965 147.353,200.516 146.065 C 196.852 145.004,197.706 142.017,201.676 142.006 C 204.622 141.998,204.830 141.542,202.626 139.921 C 201.639 139.194,200.824 138.375,200.816 138.100 C 200.786 137.155,199.620 137.601,199.004 138.793 M117.000 192.632 C 116.280 192.935,116.645 267.681,117.369 268.087 C 117.693 268.268,121.703 268.368,126.279 268.308 L 134.600 268.200 134.800 236.668 C 134.987 207.233,135.047 205.101,135.700 204.624 C 136.085 204.342,136.400 203.906,136.400 203.655 C 136.400 202.834,140.176 199.256,142.212 198.149 C 144.956 196.655,150.494 196.528,152.370 197.914 C 153.029 198.401,153.801 198.800,154.086 198.800 C 154.706 198.800,158.800 203.025,158.800 203.665 C 158.800 203.911,159.115 204.342,159.500 204.624 C 160.153 205.101,160.213 207.233,160.400 236.668 L 160.600 268.200 173.152 268.306 C 182.081 268.381,185.862 268.280,186.252 267.957 C 186.707 267.579,186.800 262.434,186.800 237.636 C 186.800 208.559,186.821 207.728,187.600 206.200 C 188.040 205.337,188.400 204.349,188.400 204.004 C 188.400 203.660,188.715 203.081,189.100 202.718 C 189.485 202.355,190.502 201.338,191.361 200.457 C 192.219 199.577,193.366 198.745,193.909 198.608 C 194.452 198.472,195.133 198.124,195.422 197.835 C 196.605 196.652,203.395 196.652,204.578 197.835 C 204.867 198.124,205.533 198.468,206.058 198.600 C 206.922 198.817,209.345 200.883,210.752 202.603 C 211.056 202.974,211.727 204.476,212.244 205.939 L 213.183 208.600 213.192 238.020 C 213.198 260.359,213.316 267.556,213.680 267.920 C 214.188 268.428,236.490 268.647,237.767 268.157 C 238.336 267.939,238.400 264.968,238.400 238.671 C 238.400 214.325,238.496 209.157,238.972 207.813 C 239.287 206.926,239.640 205.750,239.756 205.200 C 240.108 203.533,244.244 198.800,245.348 198.800 C 245.647 198.800,246.387 198.411,246.992 197.935 C 250.917 194.848,263.600 199.945,263.600 204.609 C 263.600 205.056,263.915 205.867,264.300 206.411 C 264.947 207.326,265.015 209.683,265.200 237.800 L 265.400 268.200 273.749 268.308 C 279.570 268.384,282.265 268.278,282.649 267.959 C 283.544 267.216,283.464 192.987,282.567 192.643 C 281.867 192.374,117.638 192.363,117.000 192.632 M101.280 278.080 C 100.450 278.910,100.632 290.040,101.500 291.565 L 102.200 292.795 200.071 292.797 L 297.941 292.800 298.571 291.539 C 299.371 289.934,299.494 278.854,298.720 278.080 C 298.021 277.381,101.979 277.381,101.280 278.080 " stroke="none" fill="#080808" fill-rule="evenodd"></path><path id="path1" d="M0.000 200.000 L 0.000 400.000 200.000 400.000 L 400.000 400.000 400.000 200.000 L 400.000 0.000 200.000 0.000 L 0.000 0.000 0.000 200.000 M201.882 107.381 C 202.717 107.921,203.834 108.731,204.363 109.181 C 204.893 109.631,205.540 110.000,205.801 110.000 C 206.062 110.000,206.602 110.360,207.000 110.800 C 207.398 111.240,207.895 111.600,208.104 111.600 C 208.313 111.600,209.019 112.050,209.673 112.600 C 210.327 113.150,211.118 113.600,211.431 113.600 C 211.744 113.600,212.000 113.778,212.000 113.995 C 212.000 114.212,212.585 114.634,213.300 114.933 C 214.015 115.232,214.847 115.774,215.149 116.138 C 215.451 116.502,215.924 116.800,216.200 116.800 C 216.476 116.800,216.935 117.080,217.219 117.423 C 217.504 117.766,218.338 118.298,219.074 118.605 C 219.809 118.912,220.518 119.442,220.648 119.782 C 220.779 120.122,221.091 120.403,221.343 120.407 C 221.834 120.415,225.014 122.416,226.000 123.338 C 226.330 123.646,227.005 124.024,227.500 124.176 C 227.995 124.329,228.400 124.619,228.400 124.822 C 228.400 125.024,228.985 125.434,229.700 125.733 C 230.415 126.032,231.247 126.574,231.549 126.938 C 231.851 127.302,232.263 127.600,232.465 127.600 C 232.667 127.600,233.320 127.936,233.916 128.346 C 235.358 129.338,239.526 132.097,240.343 132.600 C 240.701 132.820,241.504 133.405,242.128 133.900 C 242.751 134.395,243.447 134.800,243.673 134.800 C 244.035 134.800,245.022 135.489,247.234 137.285 C 247.893 137.821,249.148 138.581,251.700 139.989 C 252.525 140.444,253.200 140.993,253.200 141.208 C 253.200 141.424,253.408 141.600,253.662 141.600 C 253.916 141.600,254.714 142.050,255.436 142.600 C 256.157 143.150,256.911 143.600,257.111 143.600 C 257.312 143.600,257.802 143.960,258.200 144.400 C 258.598 144.840,259.141 145.200,259.407 145.200 C 259.673 145.200,260.590 145.741,261.445 146.401 C 262.300 147.062,263.352 147.872,263.781 148.201 C 264.211 148.531,264.725 148.800,264.924 148.800 C 265.122 148.800,265.819 149.250,266.473 149.800 C 267.127 150.350,267.874 150.800,268.134 150.800 C 268.395 150.800,268.832 151.160,269.107 151.600 C 269.382 152.040,269.861 152.400,270.173 152.400 C 270.484 152.400,271.249 152.805,271.872 153.300 C 273.189 154.345,274.030 154.883,276.100 156.004 C 276.925 156.451,277.600 156.993,277.600 157.208 C 277.600 157.424,277.856 157.600,278.169 157.600 C 278.482 157.600,279.273 158.050,279.927 158.600 C 280.581 159.150,281.287 159.600,281.496 159.600 C 281.705 159.600,282.202 159.960,282.600 160.400 C 282.998 160.840,283.538 161.200,283.800 161.200 C 284.062 161.200,284.602 161.560,285.000 162.000 C 285.398 162.440,285.952 162.800,286.231 162.800 C 286.510 162.800,287.249 163.205,287.872 163.700 C 289.073 164.653,289.879 165.195,291.759 166.311 C 292.396 166.690,293.201 167.315,293.548 167.700 C 293.894 168.085,294.353 168.400,294.567 168.400 C 295.118 168.400,297.958 170.333,299.500 171.757 L 300.800 172.957 300.800 177.629 C 300.800 181.488,300.685 182.398,300.139 182.851 C 298.908 183.872,100.516 183.647,99.768 182.624 C 98.725 181.198,98.980 173.039,100.100 171.980 C 101.346 170.802,104.987 168.400,105.527 168.400 C 105.772 168.400,106.165 168.040,106.400 167.600 C 106.635 167.160,107.078 166.800,107.383 166.800 C 107.689 166.800,108.473 166.350,109.127 165.800 C 109.781 165.250,110.492 164.800,110.709 164.800 C 110.925 164.800,111.349 164.502,111.651 164.138 C 111.953 163.774,112.785 163.232,113.500 162.933 C 114.215 162.634,114.800 162.229,114.800 162.034 C 114.800 161.838,115.340 161.490,116.000 161.260 C 116.660 161.030,117.200 160.664,117.200 160.448 C 117.200 160.231,117.605 159.927,118.100 159.772 C 118.595 159.617,119.509 159.065,120.131 158.545 C 120.753 158.025,121.518 157.600,121.831 157.600 C 122.144 157.600,122.400 157.425,122.400 157.210 C 122.400 156.996,122.985 156.522,123.700 156.156 C 124.415 155.791,125.144 155.246,125.320 154.946 C 125.496 154.646,125.969 154.400,126.371 154.400 C 126.773 154.400,127.336 154.118,127.622 153.774 C 127.908 153.429,128.695 152.865,129.371 152.519 C 130.047 152.174,130.744 151.646,130.920 151.346 C 131.096 151.046,131.473 150.800,131.758 150.800 C 132.043 150.800,132.799 150.350,133.438 149.800 C 134.077 149.251,134.803 148.801,135.051 148.800 C 135.299 148.800,135.742 148.511,136.035 148.158 C 136.327 147.805,136.935 147.351,137.384 147.148 C 138.159 146.798,140.075 145.514,141.781 144.201 C 142.211 143.871,142.725 143.600,142.924 143.600 C 143.122 143.600,143.819 143.150,144.473 142.600 C 145.127 142.050,145.918 141.600,146.231 141.600 C 146.544 141.600,146.800 141.438,146.800 141.240 C 146.800 140.898,148.458 139.726,150.817 138.400 C 151.404 138.070,152.193 137.485,152.571 137.100 C 152.948 136.715,153.486 136.400,153.767 136.400 C 154.047 136.400,154.587 136.056,154.967 135.636 C 155.348 135.216,156.096 134.762,156.629 134.628 C 157.163 134.494,157.600 134.213,157.600 134.003 C 157.600 133.792,158.168 133.327,158.862 132.968 C 159.557 132.609,160.322 132.147,160.562 131.943 C 161.262 131.348,165.999 128.253,167.150 127.640 C 167.727 127.331,168.344 126.836,168.520 126.540 C 168.696 126.243,169.056 126.000,169.320 125.999 C 169.584 125.999,170.790 125.279,172.000 124.399 C 173.210 123.519,174.695 122.602,175.300 122.361 C 175.905 122.119,176.400 121.750,176.400 121.540 C 176.400 121.331,177.038 120.893,177.817 120.567 C 178.597 120.241,179.336 119.710,179.460 119.387 C 179.584 119.064,179.923 118.800,180.212 118.800 C 180.502 118.800,181.273 118.350,181.927 117.800 C 182.581 117.250,183.396 116.800,183.738 116.800 C 184.080 116.800,184.504 116.554,184.680 116.254 C 184.856 115.954,185.585 115.409,186.300 115.044 C 187.015 114.678,187.600 114.208,187.600 113.997 C 187.600 113.787,188.037 113.506,188.571 113.372 C 189.104 113.238,189.852 112.784,190.233 112.364 C 190.613 111.944,191.095 111.600,191.304 111.600 C 191.513 111.600,192.219 111.150,192.873 110.600 C 193.527 110.050,194.318 109.600,194.631 109.600 C 194.944 109.600,195.200 109.417,195.200 109.194 C 195.200 108.970,195.875 108.475,196.700 108.094 C 197.525 107.712,198.344 107.175,198.520 106.900 C 199.012 106.130,200.213 106.302,201.882 107.381 M195.613 133.873 C 195.071 133.986,194.191 134.421,193.659 134.839 C 193.127 135.258,192.462 135.600,192.180 135.600 C 191.699 135.600,190.554 136.684,188.239 139.332 C 187.695 139.954,187.137 140.977,186.999 141.604 C 186.861 142.231,186.490 142.959,186.174 143.221 C 185.384 143.877,185.339 152.214,186.124 152.516 C 186.413 152.626,186.864 153.437,187.128 154.317 C 187.392 155.197,187.876 156.020,188.204 156.146 C 188.532 156.272,188.800 156.578,188.800 156.827 C 188.800 157.388,191.127 159.600,191.717 159.600 C 191.954 159.600,192.528 159.957,192.992 160.393 C 195.082 162.356,204.918 162.356,207.008 160.393 C 207.472 159.957,208.051 159.600,208.295 159.600 C 208.817 159.600,211.200 157.296,211.200 156.792 C 211.200 156.601,211.531 156.210,211.935 155.923 C 212.340 155.635,212.804 154.860,212.967 154.200 C 213.129 153.540,213.533 152.699,213.864 152.332 C 214.760 151.337,214.758 144.847,213.861 143.566 C 213.498 143.047,213.200 142.327,213.200 141.966 C 213.200 140.808,208.798 135.600,207.820 135.600 C 207.538 135.600,206.795 135.197,206.168 134.703 C 205.020 133.800,198.449 133.283,195.613 133.873 M202.077 137.140 C 202.365 137.548,203.163 138.171,203.850 138.525 C 205.350 139.298,205.766 140.829,204.984 142.700 C 204.380 144.146,203.832 144.282,202.146 143.402 C 200.722 142.660,200.000 142.638,200.000 143.338 C 200.000 144.082,201.193 145.086,202.449 145.399 C 206.343 146.371,208.020 151.950,205.200 154.554 C 204.430 155.265,203.113 156.691,202.273 157.724 C 200.447 159.968,199.677 160.051,197.879 158.200 C 197.131 157.430,196.337 156.800,196.114 156.800 C 194.286 156.800,193.006 153.857,194.014 151.974 C 194.522 151.026,196.863 150.912,197.600 151.800 C 197.874 152.130,198.628 152.400,199.276 152.400 C 201.228 152.400,200.738 150.352,198.669 149.866 C 197.828 149.668,197.043 149.257,196.927 148.953 C 196.810 148.649,196.485 148.400,196.205 148.400 C 195.150 148.400,193.600 145.731,193.600 143.916 C 193.600 142.187,195.265 139.600,196.377 139.600 C 196.610 139.600,196.800 139.385,196.800 139.122 C 196.800 137.116,200.958 135.555,202.077 137.140 M284.026 191.614 C 284.830 192.044,285.287 267.852,284.494 269.040 C 283.709 270.216,282.262 270.400,273.808 270.400 L 265.164 270.400 264.182 269.418 L 263.200 268.436 263.198 238.918 C 263.195 208.601,263.055 205.469,261.627 203.936 C 261.177 203.454,260.705 202.731,260.578 202.329 C 260.450 201.928,260.120 201.600,259.843 201.600 C 259.566 201.600,258.917 201.150,258.400 200.600 C 257.883 200.050,257.154 199.600,256.779 199.600 C 256.404 199.600,255.451 199.330,254.662 199.000 C 250.565 197.288,245.124 199.545,241.600 204.417 L 240.600 205.800 240.400 237.336 L 240.200 268.871 239.236 269.651 C 238.319 270.394,237.662 270.426,225.501 270.316 L 212.728 270.200 211.964 269.256 C 211.227 268.344,211.200 267.230,211.200 237.210 C 211.200 206.714,211.184 206.088,210.400 205.091 C 209.960 204.531,209.600 203.885,209.600 203.655 C 209.600 203.240,208.483 202.040,206.851 200.704 C 203.437 197.909,196.148 197.968,193.092 200.815 C 192.628 201.247,192.136 201.600,191.998 201.600 C 191.860 201.600,191.350 202.306,190.865 203.169 C 190.380 204.033,189.762 204.813,189.492 204.903 C 189.111 205.030,188.955 212.198,188.800 236.768 L 188.600 268.470 187.478 269.435 L 186.355 270.400 173.640 270.400 C 161.898 270.400,160.874 270.345,160.272 269.679 C 159.683 269.028,159.609 265.991,159.510 238.379 L 159.400 207.800 158.500 206.119 C 158.005 205.195,157.600 204.252,157.600 204.023 C 157.600 203.794,157.015 203.071,156.300 202.415 C 155.585 201.760,154.730 200.965,154.400 200.649 C 151.617 197.983,143.755 198.016,140.835 200.705 C 140.420 201.087,139.523 201.892,138.840 202.494 C 138.158 203.095,137.600 203.822,137.600 204.109 C 137.600 204.396,137.195 205.344,136.700 206.215 L 135.800 207.800 135.600 238.600 C 135.490 255.540,135.254 269.625,135.076 269.900 C 134.453 270.864,116.989 270.589,116.000 269.600 C 114.826 268.426,114.728 192.314,115.900 191.632 C 116.884 191.059,282.956 191.041,284.026 191.614 M299.559 276.689 L 300.800 277.778 300.800 284.627 C 300.800 291.353,300.782 291.496,299.801 292.638 L 298.803 293.800 200.075 293.800 L 101.347 293.800 100.274 292.642 L 99.200 291.483 99.200 284.774 C 99.200 277.842,99.330 276.800,100.194 276.800 C 100.473 276.800,100.926 276.530,101.200 276.200 C 101.640 275.670,113.109 275.600,200.008 275.600 L 298.318 275.600 299.559 276.689 " stroke="none" fill="#fbfbfb" fill-rule="evenodd"></path><path id="path2" d="M202.767 108.945 C 203.300 109.601,204.800 110.593,204.800 110.289 C 204.800 110.213,204.215 109.722,203.500 109.199 C 202.696 108.610,202.416 108.513,202.767 108.945 M228.833 126.121 C 228.925 126.188,229.540 126.558,230.200 126.945 L 231.400 127.647 230.456 126.824 C 229.936 126.371,229.321 126.000,229.089 126.000 C 228.857 126.000,228.742 126.054,228.833 126.121 M198.905 132.687 C 199.514 132.779,200.414 132.777,200.905 132.682 C 201.397 132.587,200.900 132.511,199.800 132.514 C 198.700 132.517,198.297 132.595,198.905 132.687 M192.296 134.550 C 190.375 135.731,189.838 136.289,191.400 135.481 C 192.654 134.833,194.345 133.626,194.000 133.625 C 193.890 133.625,193.123 134.041,192.296 134.550 M207.001 134.402 C 207.269 134.836,209.600 136.134,209.600 135.850 C 209.600 135.756,208.959 135.301,208.176 134.839 C 207.393 134.377,206.864 134.180,207.001 134.402 M198.400 138.000 C 197.930 138.660,197.636 139.200,197.746 139.200 C 197.856 139.200,198.330 138.660,198.800 138.000 C 199.270 137.340,199.564 136.800,199.454 136.800 C 199.344 136.800,198.870 137.340,198.400 138.000 M200.956 137.511 C 201.372 137.993,202.362 138.754,203.156 139.203 C 204.732 140.093,204.431 139.807,201.400 137.535 C 200.203 136.637,200.202 136.637,200.956 137.511 M204.101 142.240 C 203.606 142.804,203.411 143.196,203.667 143.111 C 204.098 142.967,205.480 141.191,205.149 141.207 C 205.067 141.211,204.595 141.676,204.101 142.240 M184.944 148.000 C 184.944 150.090,185.012 150.945,185.094 149.900 C 185.176 148.855,185.176 147.145,185.094 146.100 C 185.012 145.055,184.944 145.910,184.944 148.000 M136.200 148.650 C 135.481 149.262,135.334 149.505,135.833 149.257 C 136.566 148.893,137.941 147.576,137.549 147.614 C 137.467 147.622,136.860 148.088,136.200 148.650 M200.752 151.513 C 200.621 152.307,200.679 152.681,200.901 152.459 C 201.103 152.257,201.201 151.667,201.119 151.146 C 200.993 150.345,200.937 150.402,200.752 151.513 M194.191 153.229 C 193.907 154.122,194.782 155.366,196.196 156.081 C 196.638 156.305,196.370 155.942,195.600 155.276 C 194.352 154.195,194.255 153.973,194.703 153.232 C 194.980 152.774,195.037 152.400,194.830 152.400 C 194.623 152.400,194.336 152.773,194.191 153.229 M198.691 163.089 C 199.401 163.177,200.661 163.179,201.491 163.092 C 202.321 163.005,201.740 162.933,200.200 162.931 C 198.660 162.929,197.981 163.000,198.691 163.089 M110.122 165.829 L 109.000 166.858 110.300 165.954 C 111.015 165.457,111.600 164.993,111.600 164.925 C 111.600 164.609,111.158 164.880,110.122 165.829 M99.748 177.200 C 99.748 179.510,99.814 180.455,99.895 179.300 C 99.976 178.145,99.976 176.255,99.895 175.100 C 99.814 173.945,99.748 174.890,99.748 177.200 M300.148 177.200 C 300.148 179.510,300.214 180.455,300.295 179.300 C 300.376 178.145,300.376 176.255,300.295 175.100 C 300.214 173.945,300.148 174.890,300.148 177.200 M150.268 182.700 C 177.365 182.757,221.825 182.757,249.068 182.700 C 276.311 182.643,254.140 182.597,199.800 182.597 C 145.460 182.597,123.171 182.643,150.268 182.700 M158.500 191.900 C 181.325 191.957,218.675 191.957,241.500 191.900 C 264.325 191.843,245.650 191.796,200.000 191.796 C 154.350 191.796,135.675 191.843,158.500 191.900 M115.784 192.500 C 115.679 192.775,115.640 209.920,115.697 230.600 L 115.800 268.200 116.000 230.100 C 116.110 209.145,116.149 192.000,116.087 192.000 C 116.026 192.000,115.889 192.225,115.784 192.500 M283.999 230.188 L 283.800 268.176 282.800 268.682 C 282.176 268.998,282.040 269.190,282.438 269.194 C 284.485 269.213,284.412 270.743,284.301 229.966 L 284.198 192.200 283.999 230.188 M206.800 199.682 C 206.800 199.766,207.553 200.547,208.474 201.418 C 209.394 202.288,209.979 202.707,209.774 202.350 C 209.410 201.717,206.800 199.376,206.800 199.682 M258.800 200.146 C 258.800 200.256,259.340 200.730,260.000 201.200 C 260.660 201.670,261.200 201.964,261.200 201.854 C 261.200 201.744,260.660 201.270,260.000 200.800 C 259.340 200.330,258.800 200.036,258.800 200.146 M187.856 207.684 C 187.721 208.188,187.608 221.797,187.605 237.926 C 187.602 258.814,187.471 267.504,187.151 268.126 C 186.773 268.862,186.789 268.918,187.251 268.480 C 187.695 268.060,188.574 207.881,188.151 206.884 C 188.124 206.820,187.991 207.180,187.856 207.684 M135.293 208.400 C 135.293 209.170,135.375 209.485,135.476 209.100 C 135.576 208.715,135.576 208.085,135.476 207.700 C 135.375 207.315,135.293 207.630,135.293 208.400 M159.790 237.400 C 159.790 254.120,159.840 260.902,159.900 252.470 C 159.960 244.039,159.960 230.359,159.900 222.070 C 159.839 213.782,159.790 220.680,159.790 237.400 M263.901 229.338 C 263.957 241.252,264.051 254.780,264.110 259.400 C 264.169 264.020,264.255 254.480,264.302 238.200 C 264.349 221.920,264.256 208.392,264.094 208.138 C 263.932 207.884,263.846 217.424,263.901 229.338 M212.097 238.486 C 211.991 271.130,211.873 269.300,214.074 269.168 C 214.363 269.151,214.106 268.956,213.503 268.736 L 212.405 268.335 212.300 238.468 L 212.195 208.600 212.097 238.486 M239.200 267.872 C 239.200 268.095,238.795 268.473,238.300 268.712 C 237.805 268.951,237.591 269.158,237.824 269.173 C 238.496 269.216,239.830 268.096,239.499 267.766 C 239.335 267.601,239.200 267.649,239.200 267.872 M116.341 268.901 C 116.543 269.103,117.133 269.201,117.654 269.119 C 118.455 268.993,118.398 268.937,117.287 268.752 C 116.493 268.621,116.119 268.679,116.341 268.901 M100.686 277.302 L 99.572 278.200 99.697 284.600 L 99.822 291.000 99.911 284.546 C 99.999 278.174,100.013 278.084,100.985 277.447 C 101.883 276.858,110.534 276.793,199.285 276.700 L 296.600 276.598 199.200 276.501 L 101.800 276.404 100.686 277.302 M298.900 277.282 L 300.000 278.230 300.000 284.426 C 300.000 289.389,299.874 290.819,299.368 291.611 L 298.736 292.600 299.568 291.656 C 300.336 290.784,300.400 290.223,300.400 284.383 L 300.400 278.054 299.100 277.194 L 297.800 276.334 298.900 277.282 M151.332 293.500 C 178.355 293.557,222.455 293.557,249.332 293.500 C 276.209 293.443,254.100 293.397,200.200 293.397 C 146.300 293.397,124.309 293.443,151.332 293.500 " stroke="none" fill="#8c8c8c" fill-rule="evenodd"></path><path id="path3" d="M198.400 108.090 C 197.630 108.571,195.470 109.962,193.600 111.180 C 191.730 112.398,189.904 113.575,189.542 113.797 C 189.180 114.019,187.830 114.905,186.542 115.767 C 185.254 116.629,182.850 118.205,181.200 119.268 C 179.550 120.331,177.780 121.561,177.266 122.001 C 176.752 122.440,176.105 122.800,175.828 122.800 C 175.551 122.800,174.998 123.160,174.600 123.600 C 174.202 124.040,173.707 124.400,173.501 124.400 C 173.295 124.400,172.648 124.771,172.063 125.224 C 171.478 125.677,168.390 127.740,165.200 129.808 C 162.010 131.876,158.954 133.891,158.410 134.284 C 157.865 134.678,156.515 135.584,155.410 136.297 C 154.304 137.010,153.130 137.778,152.800 138.003 C 152.470 138.229,150.220 139.696,147.800 141.265 C 145.380 142.833,142.450 144.765,141.289 145.558 C 140.128 146.351,138.755 147.270,138.238 147.600 C 137.721 147.930,136.331 148.832,135.149 149.605 C 133.967 150.377,132.709 151.187,132.352 151.405 C 131.996 151.622,130.376 152.684,128.752 153.765 C 127.129 154.845,123.640 157.131,121.000 158.844 C 118.360 160.557,115.840 162.234,115.400 162.570 C 114.960 162.907,113.070 164.170,111.200 165.376 C 109.330 166.583,107.603 167.738,107.362 167.943 C 107.122 168.147,106.357 168.609,105.662 168.968 C 104.968 169.327,104.400 169.796,104.400 170.010 C 104.400 170.225,104.163 170.400,103.873 170.400 C 103.583 170.400,102.593 170.979,101.673 171.686 L 100.000 172.971 100.000 177.206 C 100.000 179.966,100.167 181.607,100.480 181.920 C 101.119 182.559,298.033 182.625,299.226 181.986 C 299.916 181.617,300.000 181.115,300.000 177.380 L 300.000 173.189 298.700 172.004 C 297.985 171.352,297.040 170.699,296.600 170.552 C 296.160 170.405,295.565 169.951,295.277 169.543 C 294.990 169.134,294.531 168.800,294.259 168.800 C 293.986 168.800,293.411 168.529,292.981 168.199 C 292.552 167.868,290.850 166.730,289.200 165.669 C 287.550 164.609,285.681 163.394,285.047 162.971 C 284.413 162.547,283.603 162.016,283.247 161.792 C 282.891 161.567,281.808 160.847,280.840 160.192 C 279.872 159.536,278.793 158.820,278.442 158.600 C 278.091 158.380,277.266 157.840,276.610 157.400 C 275.954 156.960,275.122 156.420,274.761 156.200 C 274.401 155.980,273.587 155.456,272.953 155.036 C 272.319 154.616,271.080 153.806,270.200 153.236 C 269.320 152.666,268.420 152.058,268.200 151.885 C 267.793 151.565,263.220 148.529,262.047 147.800 C 261.693 147.580,260.866 147.040,260.210 146.600 C 258.721 145.602,258.057 145.196,256.352 144.246 C 255.609 143.831,254.856 143.246,254.680 142.946 C 254.504 142.646,254.121 142.400,253.829 142.400 C 253.537 142.400,253.062 142.115,252.773 141.767 C 252.484 141.419,251.674 140.834,250.973 140.467 C 249.896 139.903,248.444 138.973,244.000 136.001 C 240.501 133.660,238.271 132.188,236.577 131.100 C 235.464 130.385,234.204 129.572,233.777 129.292 C 233.349 129.013,232.206 128.293,231.236 127.692 C 230.266 127.092,228.892 126.105,228.183 125.500 C 227.474 124.895,226.751 124.400,226.577 124.400 C 226.402 124.400,225.075 123.619,223.629 122.664 C 222.183 121.710,218.570 119.344,215.600 117.407 C 212.630 115.470,209.250 113.236,208.090 112.443 C 206.929 111.649,205.375 110.640,204.636 110.200 C 203.897 109.760,202.556 108.905,201.654 108.300 C 199.711 106.995,200.107 107.021,198.400 108.090 M200.904 108.500 C 201.395 108.775,202.307 109.405,202.929 109.900 C 203.552 110.395,204.278 110.800,204.542 110.800 C 204.806 110.800,205.330 111.160,205.707 111.600 C 206.084 112.040,206.633 112.400,206.926 112.400 C 207.220 112.400,207.883 112.850,208.400 113.400 C 208.917 113.950,209.608 114.400,209.936 114.400 C 210.264 114.400,210.818 114.669,211.166 114.998 C 212.424 116.184,214.323 117.600,214.658 117.601 C 214.846 117.601,215.990 118.320,217.200 119.198 C 218.410 120.076,219.850 121.018,220.400 121.292 C 220.950 121.566,221.638 122.018,221.929 122.295 C 222.219 122.573,222.579 122.800,222.729 122.800 C 222.878 122.801,223.523 123.251,224.162 123.800 C 224.801 124.350,225.646 124.800,226.040 124.800 C 226.433 124.800,226.990 125.115,227.277 125.500 C 227.729 126.104,229.161 127.122,231.654 128.610 C 232.013 128.824,233.273 129.632,234.454 130.405 C 235.634 131.177,236.894 131.987,237.254 132.205 C 237.613 132.422,238.892 133.275,240.095 134.100 C 241.298 134.925,242.480 135.600,242.722 135.600 C 242.963 135.600,243.304 135.826,243.480 136.102 C 243.903 136.767,246.645 138.800,247.118 138.800 C 247.323 138.800,248.169 139.340,249.000 140.000 C 249.831 140.660,250.755 141.200,251.055 141.200 C 251.355 141.200,251.600 141.378,251.600 141.595 C 251.600 141.812,252.230 142.252,253.000 142.574 C 253.770 142.896,254.400 143.353,254.400 143.589 C 254.400 143.826,254.805 144.174,255.300 144.363 C 256.322 144.752,261.440 148.032,262.500 148.976 C 262.885 149.319,263.425 149.603,263.700 149.607 C 263.975 149.611,264.624 150.061,265.142 150.607 C 265.660 151.153,266.308 151.600,266.581 151.600 C 266.854 151.600,267.493 151.960,268.000 152.400 C 268.507 152.840,269.049 153.200,269.203 153.200 C 269.357 153.200,269.969 153.650,270.562 154.200 C 271.156 154.750,271.874 155.200,272.159 155.200 C 272.443 155.200,273.002 155.560,273.400 156.000 C 273.798 156.440,274.338 156.800,274.600 156.800 C 274.862 156.800,275.398 157.155,275.791 157.590 C 276.184 158.024,276.887 158.499,277.353 158.645 C 277.819 158.790,278.679 159.290,279.264 159.755 C 281.698 161.688,282.243 162.044,283.100 162.260 C 283.595 162.385,284.000 162.617,284.000 162.776 C 284.000 163.125,287.756 165.600,288.286 165.600 C 288.492 165.600,289.083 166.050,289.600 166.600 C 290.117 167.150,290.750 167.600,291.008 167.600 C 291.265 167.600,291.802 167.960,292.200 168.400 C 292.598 168.840,293.250 169.200,293.648 169.200 C 294.046 169.200,294.565 169.560,294.800 170.000 C 295.035 170.440,295.462 170.800,295.747 170.800 C 298.563 170.800,300.947 179.334,298.609 181.043 C 297.579 181.796,103.069 181.888,101.419 181.136 C 100.438 180.689,100.400 180.539,100.400 177.100 C 100.400 173.139,100.558 172.857,103.700 171.183 C 104.525 170.743,105.200 170.210,105.200 169.997 C 105.200 169.785,105.785 169.334,106.500 168.995 C 108.392 168.098,109.489 167.424,110.400 166.600 C 111.217 165.861,111.628 165.595,114.048 164.246 C 114.791 163.831,115.544 163.246,115.720 162.946 C 115.896 162.646,116.237 162.400,116.478 162.400 C 117.099 162.400,121.200 159.629,121.200 159.210 C 121.200 159.020,121.721 158.749,122.359 158.609 C 122.996 158.469,123.834 158.005,124.221 157.577 C 124.607 157.150,125.138 156.800,125.400 156.800 C 125.662 156.800,126.198 156.445,126.591 156.010 C 126.984 155.576,127.687 155.103,128.153 154.960 C 128.619 154.816,129.270 154.452,129.600 154.151 C 130.897 152.968,132.653 151.746,133.715 151.286 C 134.328 151.021,135.048 150.625,135.315 150.408 C 137.440 148.674,138.314 148.074,139.047 147.845 C 139.513 147.699,140.216 147.224,140.609 146.790 C 141.002 146.355,141.572 146.000,141.875 146.000 C 142.177 146.000,142.525 145.739,142.648 145.419 C 142.770 145.100,143.485 144.636,144.235 144.388 C 144.986 144.141,145.600 143.802,145.600 143.636 C 145.600 143.470,146.455 142.809,147.500 142.166 C 149.406 140.994,149.893 140.689,152.300 139.151 C 153.015 138.695,153.600 138.195,153.600 138.041 C 153.600 137.887,154.213 137.539,154.962 137.268 C 155.711 136.997,156.425 136.511,156.549 136.188 C 156.673 135.865,157.038 135.600,157.359 135.600 C 157.680 135.600,158.190 135.353,158.491 135.052 C 158.792 134.750,159.570 134.204,160.220 133.837 C 160.869 133.470,162.120 132.634,163.000 131.979 C 163.880 131.324,165.185 130.530,165.900 130.215 C 166.615 129.899,167.200 129.454,167.200 129.226 C 167.200 128.998,167.785 128.532,168.500 128.191 C 171.111 126.946,172.211 126.254,172.723 125.535 C 173.010 125.131,173.407 124.800,173.605 124.800 C 174.008 124.800,176.661 123.149,177.631 122.293 C 177.979 121.988,179.251 121.172,180.458 120.481 C 181.665 119.791,182.984 118.860,183.389 118.413 C 183.793 117.966,184.361 117.600,184.650 117.600 C 185.260 117.600,188.800 115.183,188.800 114.766 C 188.800 114.613,189.217 114.382,189.726 114.254 C 190.236 114.126,191.073 113.657,191.587 113.211 C 192.102 112.765,192.755 112.400,193.039 112.400 C 193.322 112.400,193.790 112.082,194.077 111.694 C 194.365 111.305,195.050 110.757,195.600 110.475 C 196.150 110.192,197.320 109.535,198.200 109.013 C 199.080 108.491,199.847 108.050,199.905 108.032 C 199.963 108.015,200.413 108.225,200.904 108.500 M196.589 132.143 C 196.155 132.442,195.150 132.806,194.355 132.951 C 193.560 133.097,192.587 133.572,192.193 134.008 C 191.799 134.444,191.293 134.800,191.069 134.800 C 190.570 134.800,186.400 139.023,186.400 139.529 C 186.400 139.729,185.995 140.407,185.500 141.036 C 184.663 142.101,184.600 142.576,184.600 147.858 C 184.600 153.195,184.654 153.593,185.500 154.494 C 185.995 155.020,186.400 155.673,186.400 155.943 C 186.400 156.391,189.658 159.801,191.388 161.165 C 191.783 161.476,192.845 161.985,193.749 162.296 C 194.654 162.608,195.648 163.074,195.959 163.331 C 196.918 164.127,203.755 163.945,204.690 163.100 C 205.115 162.715,205.809 162.398,206.231 162.395 C 207.875 162.383,212.929 157.468,214.510 154.342 C 216.161 151.079,216.135 144.298,214.459 141.112 C 213.345 138.995,209.723 134.800,209.009 134.800 C 208.812 134.800,208.280 134.469,207.826 134.064 C 205.685 132.156,198.383 130.908,196.589 132.143 M203.573 133.018 C 206.762 133.770,208.453 134.770,210.934 137.372 C 223.462 150.508,206.445 170.512,191.387 160.349 C 177.508 150.983,187.234 129.167,203.573 133.018 M197.800 138.916 C 194.244 142.621,193.810 143.700,194.974 145.949 C 195.607 147.174,198.157 149.023,199.771 149.428 C 200.867 149.704,201.484 151.084,201.034 152.256 C 200.820 152.813,200.365 152.874,198.038 152.658 C 193.829 152.267,193.134 153.706,196.480 155.880 C 197.426 156.494,198.435 157.312,198.723 157.698 C 199.510 158.756,200.542 158.545,201.361 157.159 C 201.764 156.476,202.684 155.570,203.404 155.144 C 204.586 154.447,205.014 153.780,205.759 151.478 C 206.340 149.679,203.035 145.600,200.996 145.600 C 200.324 145.600,199.834 145.239,199.421 144.440 C 198.567 142.790,199.347 142.211,202.003 142.526 C 205.140 142.897,205.743 140.522,202.887 139.045 C 202.288 138.735,201.456 138.103,201.037 137.641 C 200.039 136.538,200.110 136.509,197.800 138.916 M200.816 138.100 C 200.824 138.375,201.639 139.194,202.626 139.921 C 204.830 141.542,204.622 141.998,201.676 142.006 C 197.706 142.017,196.852 145.004,200.516 146.065 C 204.965 147.353,206.571 153.082,202.912 154.611 C 202.017 154.985,201.375 155.641,200.980 156.586 C 200.356 158.080,199.726 158.395,199.346 157.404 C 199.220 157.076,198.235 156.160,197.157 155.368 C 194.716 153.577,194.928 153.200,198.375 153.200 C 202.241 153.200,203.534 150.174,200.177 148.982 C 195.223 147.223,193.558 142.484,197.227 140.586 C 197.864 140.256,198.664 139.450,199.004 138.793 C 199.620 137.601,200.786 137.155,200.816 138.100 M116.267 192.267 C 115.728 192.806,115.958 268.326,116.500 268.676 C 117.473 269.306,134.193 269.331,134.714 268.703 C 135.059 268.288,135.209 260.035,135.290 237.161 L 135.400 206.180 136.300 205.036 C 136.795 204.407,137.203 203.691,137.207 203.446 C 137.237 201.365,143.931 197.600,147.601 197.600 C 151.394 197.600,158.400 201.789,158.400 204.057 C 158.400 204.321,158.715 204.885,159.100 205.310 C 159.750 206.029,159.814 208.289,160.000 237.142 C 160.110 254.224,160.346 268.425,160.524 268.700 C 161.154 269.674,185.807 269.393,186.800 268.400 C 187.586 267.614,187.600 267.067,187.600 238.162 C 187.600 204.660,187.497 205.853,190.723 202.050 C 196.006 195.823,205.692 196.320,210.261 203.052 C 212.332 206.104,212.388 207.036,212.394 238.861 L 212.400 268.322 213.660 268.761 C 214.458 269.039,219.010 269.200,226.086 269.200 C 237.085 269.200,238.482 269.056,239.294 267.840 C 239.456 267.598,239.592 253.990,239.596 237.600 C 239.605 206.002,239.617 205.791,241.541 203.229 C 246.668 196.400,254.918 195.695,260.712 201.591 C 264.482 205.426,264.409 204.694,264.404 238.638 C 264.400 266.813,264.428 267.901,265.157 268.561 C 266.162 269.471,282.230 269.374,283.340 268.451 C 284.332 267.626,284.359 192.624,283.367 192.243 C 282.500 191.910,116.600 191.934,116.267 192.267 M282.567 192.643 C 283.464 192.987,283.544 267.216,282.649 267.959 C 282.265 268.278,279.570 268.384,273.749 268.308 L 265.400 268.200 265.200 237.800 C 265.015 209.683,264.947 207.326,264.300 206.411 C 263.915 205.867,263.600 205.056,263.600 204.609 C 263.600 199.945,250.917 194.848,246.992 197.935 C 246.387 198.411,245.647 198.800,245.348 198.800 C 244.244 198.800,240.108 203.533,239.756 205.200 C 239.640 205.750,239.287 206.926,238.972 207.813 C 238.496 209.157,238.400 214.325,238.400 238.671 C 238.400 264.968,238.336 267.939,237.767 268.157 C 236.490 268.647,214.188 268.428,213.680 267.920 C 213.316 267.556,213.198 260.359,213.192 238.020 L 213.183 208.600 212.244 205.939 C 211.727 204.476,211.056 202.974,210.752 202.603 C 209.345 200.883,206.922 198.817,206.058 198.600 C 205.533 198.468,204.867 198.124,204.578 197.835 C 203.395 196.652,196.605 196.652,195.422 197.835 C 195.133 198.124,194.452 198.472,193.909 198.608 C 193.366 198.745,192.219 199.577,191.361 200.457 C 190.502 201.338,189.485 202.355,189.100 202.718 C 188.715 203.081,188.400 203.660,188.400 204.004 C 188.400 204.349,188.040 205.337,187.600 206.200 C 186.821 207.728,186.800 208.559,186.800 237.636 C 186.800 262.434,186.707 267.579,186.252 267.957 C 185.862 268.280,182.081 268.381,173.152 268.306 L 160.600 268.200 160.400 236.668 C 160.213 207.233,160.153 205.101,159.500 204.624 C 159.115 204.342,158.800 203.911,158.800 203.665 C 158.800 203.025,154.706 198.800,154.086 198.800 C 153.801 198.800,153.029 198.401,152.370 197.914 C 150.494 196.528,144.956 196.655,142.212 198.149 C 140.176 199.256,136.400 202.834,136.400 203.655 C 136.400 203.906,136.085 204.342,135.700 204.624 C 135.047 205.101,134.987 207.233,134.800 236.668 L 134.600 268.200 126.279 268.308 C 121.703 268.368,117.693 268.268,117.369 268.087 C 116.645 267.681,116.280 192.935,117.000 192.632 C 117.638 192.363,281.867 192.374,282.567 192.643 M199.285 276.700 C 110.534 276.793,101.883 276.858,100.985 277.447 C 99.425 278.469,99.450 290.416,101.016 292.104 L 102.032 293.200 200.184 293.200 L 298.335 293.200 299.167 291.853 C 299.917 290.640,300.000 289.888,300.000 284.328 L 300.000 278.150 298.816 277.275 C 298.165 276.794,297.400 276.445,297.116 276.499 C 296.832 276.554,252.808 276.644,199.285 276.700 M298.720 278.080 C 299.494 278.854,299.371 289.934,298.571 291.539 L 297.941 292.800 200.071 292.797 L 102.200 292.795 101.500 291.565 C 100.632 290.040,100.450 278.910,101.280 278.080 C 101.979 277.381,298.021 277.381,298.720 278.080 " stroke="none" fill="#747474" fill-rule="evenodd"></path><path id="path4" d="M198.520 106.900 C 198.344 107.175,197.525 107.712,196.700 108.094 C 195.875 108.475,195.200 108.970,195.200 109.194 C 195.200 109.417,194.944 109.600,194.631 109.600 C 194.318 109.600,193.527 110.050,192.873 110.600 C 192.219 111.150,191.513 111.600,191.304 111.600 C 191.095 111.600,190.613 111.944,190.233 112.364 C 189.852 112.784,189.104 113.238,188.571 113.372 C 188.037 113.506,187.600 113.787,187.600 113.997 C 187.600 114.208,187.015 114.678,186.300 115.044 C 185.585 115.409,184.856 115.954,184.680 116.254 C 184.504 116.554,184.080 116.800,183.738 116.800 C 183.396 116.800,182.581 117.250,181.927 117.800 C 181.273 118.350,180.502 118.800,180.212 118.800 C 179.923 118.800,179.584 119.064,179.460 119.387 C 179.336 119.710,178.597 120.241,177.817 120.567 C 177.038 120.893,176.400 121.331,176.400 121.540 C 176.400 121.750,175.905 122.119,175.300 122.361 C 174.695 122.602,173.210 123.519,172.000 124.399 C 170.790 125.279,169.584 125.999,169.320 125.999 C 169.056 126.000,168.696 126.243,168.520 126.540 C 168.344 126.836,167.727 127.331,167.150 127.640 C 165.999 128.253,161.262 131.348,160.562 131.943 C 160.322 132.147,159.557 132.609,158.862 132.968 C 158.168 133.327,157.600 133.792,157.600 134.003 C 157.600 134.213,157.163 134.494,156.629 134.628 C 156.096 134.762,155.348 135.216,154.967 135.636 C 154.587 136.056,154.047 136.400,153.767 136.400 C 153.486 136.400,152.948 136.715,152.571 137.100 C 152.193 137.485,151.404 138.070,150.817 138.400 C 148.458 139.726,146.800 140.898,146.800 141.240 C 146.800 141.438,146.544 141.600,146.231 141.600 C 145.918 141.600,145.127 142.050,144.473 142.600 C 143.819 143.150,143.122 143.600,142.924 143.600 C 142.725 143.600,142.211 143.871,141.781 144.201 C 140.075 145.514,138.159 146.798,137.384 147.148 C 136.935 147.351,136.327 147.805,136.035 148.158 C 135.742 148.511,135.299 148.800,135.051 148.800 C 134.803 148.801,134.077 149.251,133.438 149.800 C 132.799 150.350,132.043 150.800,131.758 150.800 C 131.473 150.800,131.096 151.046,130.920 151.346 C 130.744 151.646,130.047 152.174,129.371 152.519 C 128.695 152.865,127.908 153.429,127.622 153.774 C 127.336 154.118,126.773 154.400,126.371 154.400 C 125.969 154.400,125.496 154.646,125.320 154.946 C 125.144 155.246,124.415 155.791,123.700 156.156 C 122.985 156.522,122.400 156.996,122.400 157.210 C 122.400 157.425,122.144 157.600,121.831 157.600 C 121.518 157.600,120.753 158.025,120.131 158.545 C 119.509 159.065,118.595 159.617,118.100 159.772 C 117.605 159.927,117.200 160.231,117.200 160.448 C 117.200 160.664,116.660 161.030,116.000 161.260 C 115.340 161.490,114.800 161.838,114.800 162.034 C 114.800 162.229,114.215 162.634,113.500 162.933 C 112.785 163.232,111.953 163.774,111.651 164.138 C 111.349 164.502,110.925 164.800,110.709 164.800 C 110.492 164.800,109.781 165.250,109.127 165.800 C 108.473 166.350,107.689 166.800,107.383 166.800 C 107.078 166.800,106.635 167.160,106.400 167.600 C 106.165 168.040,105.772 168.400,105.527 168.400 C 104.987 168.400,101.346 170.802,100.100 171.980 C 98.980 173.039,98.725 181.198,99.768 182.624 C 100.516 183.647,298.908 183.872,300.139 182.851 C 300.685 182.398,300.800 181.488,300.800 177.629 L 300.800 172.957 299.500 171.757 C 297.958 170.333,295.118 168.400,294.567 168.400 C 294.353 168.400,293.894 168.085,293.548 167.700 C 293.201 167.315,292.396 166.690,291.759 166.311 C 289.879 165.195,289.073 164.653,287.872 163.700 C 287.249 163.205,286.510 162.800,286.231 162.800 C 285.952 162.800,285.398 162.440,285.000 162.000 C 284.602 161.560,284.062 161.200,283.800 161.200 C 283.538 161.200,282.998 160.840,282.600 160.400 C 282.202 159.960,281.705 159.600,281.496 159.600 C 281.287 159.600,280.581 159.150,279.927 158.600 C 279.273 158.050,278.482 157.600,278.169 157.600 C 277.856 157.600,277.600 157.424,277.600 157.208 C 277.600 156.993,276.925 156.451,276.100 156.004 C 274.030 154.883,273.189 154.345,271.872 153.300 C 271.249 152.805,270.484 152.400,270.173 152.400 C 269.861 152.400,269.382 152.040,269.107 151.600 C 268.832 151.160,268.395 150.800,268.134 150.800 C 267.874 150.800,267.127 150.350,266.473 149.800 C 265.819 149.250,265.122 148.800,264.924 148.800 C 264.725 148.800,264.211 148.531,263.781 148.201 C 263.352 147.872,262.300 147.062,261.445 146.401 C 260.590 145.741,259.673 145.200,259.407 145.200 C 259.141 145.200,258.598 144.840,258.200 144.400 C 257.802 143.960,257.312 143.600,257.111 143.600 C 256.911 143.600,256.157 143.150,255.436 142.600 C 254.714 142.050,253.916 141.600,253.662 141.600 C 253.408 141.600,253.200 141.424,253.200 141.208 C 253.200 140.993,252.525 140.444,251.700 139.989 C 249.148 138.581,247.893 137.821,247.234 137.285 C 245.022 135.489,244.035 134.800,243.673 134.800 C 243.447 134.800,242.751 134.395,242.128 133.900 C 241.504 133.405,240.701 132.820,240.343 132.600 C 239.526 132.097,235.358 129.338,233.916 128.346 C 233.320 127.936,232.667 127.600,232.465 127.600 C 232.263 127.600,231.851 127.302,231.549 126.938 C 231.247 126.574,230.415 126.032,229.700 125.733 C 228.985 125.434,228.400 125.024,228.400 124.822 C 228.400 124.619,227.995 124.329,227.500 124.176 C 227.005 124.024,226.330 123.646,226.000 123.338 C 225.014 122.416,221.834 120.415,221.343 120.407 C 221.091 120.403,220.779 120.122,220.648 119.782 C 220.518 119.442,219.809 118.912,219.074 118.605 C 218.338 118.298,217.504 117.766,217.219 117.423 C 216.935 117.080,216.476 116.800,216.200 116.800 C 215.924 116.800,215.451 116.502,215.149 116.138 C 214.847 115.774,214.015 115.232,213.300 114.933 C 212.585 114.634,212.000 114.212,212.000 113.995 C 212.000 113.778,211.744 113.600,211.431 113.600 C 211.118 113.600,210.327 113.150,209.673 112.600 C 209.019 112.050,208.313 111.600,208.104 111.600 C 207.895 111.600,207.398 111.240,207.000 110.800 C 206.602 110.360,206.062 110.000,205.801 110.000 C 205.540 110.000,204.893 109.631,204.363 109.181 C 201.482 106.732,199.198 105.840,198.520 106.900 M201.000 107.600 C 201.398 108.040,201.871 108.400,202.050 108.400 C 202.464 108.400,206.155 110.899,206.333 111.300 C 206.407 111.465,206.660 111.600,206.896 111.600 C 207.131 111.600,207.914 112.050,208.636 112.600 C 209.357 113.150,210.031 113.600,210.135 113.600 C 210.239 113.600,212.061 114.770,214.185 116.200 C 216.309 117.630,218.143 118.800,218.260 118.800 C 218.377 118.800,218.952 119.172,219.537 119.627 C 220.122 120.082,222.130 121.425,224.000 122.611 C 225.870 123.797,227.685 125.045,228.034 125.384 C 228.382 125.723,228.813 126.000,228.992 126.000 C 229.171 126.000,230.302 126.675,231.505 127.500 C 232.708 128.325,233.976 129.180,234.323 129.400 C 237.737 131.567,239.241 132.542,240.629 133.489 C 241.524 134.100,242.534 134.780,242.873 135.000 C 243.578 135.458,244.897 136.336,247.940 138.370 C 249.117 139.156,250.557 140.053,251.140 140.362 C 251.723 140.671,252.290 141.038,252.400 141.178 C 252.641 141.485,258.433 145.332,259.000 145.562 C 259.220 145.651,259.957 146.146,260.638 146.662 C 261.319 147.178,262.013 147.600,262.180 147.600 C 262.347 147.600,262.980 148.005,263.587 148.500 C 264.800 149.491,265.108 149.702,268.600 151.940 C 270.848 153.380,273.137 154.876,275.564 156.489 C 276.134 156.868,277.275 157.546,278.100 157.997 C 278.925 158.448,279.600 158.993,279.600 159.208 C 279.600 159.424,279.808 159.600,280.062 159.600 C 280.316 159.600,281.114 160.050,281.836 160.600 C 282.557 161.150,283.317 161.600,283.524 161.600 C 283.732 161.600,284.137 161.883,284.424 162.229 C 284.711 162.575,285.589 163.210,286.373 163.641 C 287.158 164.071,288.269 164.732,288.842 165.111 C 289.415 165.490,291.035 166.556,292.442 167.481 C 293.849 168.405,295.285 169.440,295.634 169.781 C 295.982 170.121,296.476 170.400,296.732 170.400 C 296.988 170.400,297.918 171.051,298.799 171.847 L 300.400 173.293 300.400 177.170 C 300.400 179.887,300.230 181.279,299.832 181.824 C 298.921 183.070,101.647 183.247,100.402 182.002 C 97.888 179.488,99.624 172.223,103.175 170.394 C 103.711 170.118,104.341 169.730,104.575 169.531 C 104.809 169.333,106.080 168.463,107.400 167.597 C 108.720 166.732,110.571 165.479,111.514 164.812 C 112.457 164.145,113.388 163.600,113.583 163.600 C 113.779 163.600,114.449 163.195,115.072 162.700 C 115.696 162.205,116.495 161.620,116.848 161.400 C 117.388 161.064,118.889 160.072,123.200 157.203 C 123.530 156.983,125.330 155.818,127.200 154.613 C 129.070 153.409,130.857 152.193,131.171 151.912 C 131.485 151.630,132.245 151.130,132.861 150.800 C 133.477 150.470,135.200 149.369,136.690 148.354 C 138.181 147.338,142.010 144.812,145.200 142.739 C 148.390 140.666,151.519 138.617,152.153 138.185 C 152.787 137.753,153.597 137.217,153.953 136.994 C 155.032 136.317,158.174 134.220,158.600 133.893 C 158.820 133.724,160.440 132.662,162.200 131.533 C 167.068 128.410,168.562 127.431,169.000 127.076 C 169.417 126.739,171.606 125.316,172.865 124.564 C 173.266 124.325,173.911 123.842,174.298 123.492 C 174.685 123.142,175.451 122.661,176.001 122.423 C 176.550 122.185,177.990 121.273,179.200 120.396 C 180.410 119.519,181.565 118.801,181.766 118.801 C 181.968 118.800,182.418 118.521,182.766 118.181 C 183.310 117.650,187.085 115.063,189.160 113.800 C 189.521 113.580,190.381 112.995,191.070 112.500 C 191.759 112.005,192.461 111.600,192.628 111.600 C 192.796 111.600,193.218 111.326,193.566 110.990 C 194.478 110.112,196.981 108.523,197.923 108.225 C 198.365 108.084,198.946 107.706,199.213 107.385 C 199.854 106.612,200.137 106.646,201.000 107.600 M195.992 133.348 C 191.982 134.352,188.416 137.366,186.300 141.542 C 183.145 147.768,185.651 156.329,191.800 160.326 C 196.454 163.352,204.220 163.525,207.894 160.684 C 222.022 149.759,213.022 129.085,195.992 133.348 M206.168 134.703 C 206.795 135.197,207.538 135.600,207.820 135.600 C 208.798 135.600,213.200 140.808,213.200 141.966 C 213.200 142.327,213.498 143.047,213.861 143.566 C 214.758 144.847,214.760 151.337,213.864 152.332 C 213.533 152.699,213.129 153.540,212.967 154.200 C 212.804 154.860,212.340 155.635,211.935 155.923 C 211.531 156.210,211.200 156.601,211.200 156.792 C 211.200 157.296,208.817 159.600,208.295 159.600 C 208.051 159.600,207.472 159.957,207.008 160.393 C 204.918 162.356,195.082 162.356,192.992 160.393 C 192.528 159.957,191.954 159.600,191.717 159.600 C 191.127 159.600,188.800 157.388,188.800 156.827 C 188.800 156.578,188.532 156.272,188.204 156.146 C 187.876 156.020,187.392 155.197,187.128 154.317 C 186.864 153.437,186.413 152.626,186.124 152.516 C 185.339 152.214,185.384 143.877,186.174 143.221 C 186.490 142.959,186.861 142.231,186.999 141.604 C 187.137 140.977,187.695 139.954,188.239 139.332 C 190.554 136.684,191.699 135.600,192.180 135.600 C 192.462 135.600,193.127 135.258,193.659 134.839 C 195.660 133.266,204.222 133.173,206.168 134.703 M197.875 137.522 C 197.284 138.139,196.800 138.859,196.800 139.122 C 196.800 139.385,196.610 139.600,196.377 139.600 C 195.265 139.600,193.600 142.187,193.600 143.916 C 193.600 145.731,195.150 148.400,196.205 148.400 C 196.485 148.400,196.810 148.649,196.927 148.953 C 197.043 149.257,197.828 149.668,198.669 149.866 C 200.738 150.352,201.228 152.400,199.276 152.400 C 198.628 152.400,197.874 152.130,197.600 151.800 C 196.863 150.912,194.522 151.026,194.014 151.974 C 193.006 153.857,194.286 156.800,196.114 156.800 C 196.337 156.800,197.131 157.430,197.879 158.200 C 199.677 160.051,200.447 159.968,202.273 157.724 C 203.113 156.691,204.430 155.265,205.200 154.554 C 208.020 151.950,206.343 146.371,202.449 145.399 C 201.193 145.086,200.000 144.082,200.000 143.338 C 200.000 142.638,200.722 142.660,202.146 143.402 C 203.832 144.282,204.380 144.146,204.984 142.700 C 205.766 140.829,205.350 139.298,203.850 138.525 C 203.163 138.171,202.365 137.548,202.077 137.140 C 201.262 135.985,199.165 136.175,197.875 137.522 M201.222 137.426 C 201.508 137.771,202.247 138.314,202.864 138.633 C 205.928 140.217,205.395 143.563,202.200 142.804 C 200.043 142.293,199.091 142.611,199.424 143.732 C 199.722 144.739,200.697 145.600,201.539 145.600 C 202.435 145.600,204.728 147.501,205.400 148.801 C 206.629 151.177,206.124 152.781,203.248 155.632 C 202.232 156.639,201.168 157.764,200.884 158.132 C 200.214 159.000,199.775 158.975,198.814 158.014 C 198.381 157.581,197.343 156.796,196.508 156.268 C 192.697 153.863,193.560 151.350,197.806 152.486 C 200.097 153.099,200.883 152.733,200.726 151.129 C 200.629 150.148,200.363 149.790,199.573 149.581 C 194.422 148.215,192.470 142.458,196.375 140.151 C 196.946 139.814,197.816 138.922,198.310 138.169 C 199.273 136.700,200.384 136.417,201.222 137.426 M115.900 191.632 C 114.728 192.314,114.826 268.426,116.000 269.600 C 117.217 270.817,134.536 270.841,135.186 269.626 C 135.463 269.108,135.568 259.036,135.503 239.126 L 135.405 209.400 135.300 238.983 C 135.240 255.859,135.040 268.720,134.834 268.926 C 134.115 269.645,116.664 269.258,116.100 268.510 C 115.708 267.991,115.600 259.680,115.600 230.114 L 115.600 192.380 116.626 191.990 C 118.206 191.389,282.060 191.462,283.381 192.064 L 284.400 192.528 284.400 230.202 C 284.400 266.192,284.367 267.906,283.669 268.538 C 282.365 269.718,265.467 269.516,264.623 268.311 C 264.073 267.526,264.000 263.996,264.000 238.153 C 264.000 204.253,264.120 205.478,260.412 201.651 C 259.319 200.523,258.327 199.600,258.208 199.600 C 258.089 199.600,257.138 199.195,256.096 198.700 C 250.024 195.817,241.801 200.090,240.120 207.000 C 239.762 208.475,239.629 216.795,239.617 238.686 C 239.600 267.617,239.580 268.382,238.826 268.786 C 238.341 269.046,233.481 269.200,225.800 269.200 C 218.119 269.200,213.259 269.046,212.774 268.786 C 212.019 268.382,212.000 267.628,212.000 238.859 C 212.000 207.294,211.913 205.701,210.067 203.236 C 204.594 195.931,195.721 196.003,189.856 203.400 C 188.079 205.641,188.000 207.122,188.000 238.220 C 188.000 267.067,187.985 267.615,187.200 268.400 C 186.433 269.167,185.867 269.200,173.461 269.200 L 160.522 269.200 160.088 268.300 C 159.665 267.423,159.653 267.422,159.627 268.238 C 159.560 270.325,160.048 270.400,173.709 270.400 L 186.355 270.400 187.478 269.435 L 188.600 268.470 188.800 236.768 C 188.955 212.198,189.111 205.030,189.492 204.903 C 189.762 204.813,190.380 204.033,190.865 203.169 C 191.350 202.306,191.860 201.600,191.998 201.600 C 192.136 201.600,192.628 201.247,193.092 200.815 C 196.148 197.968,203.437 197.909,206.851 200.704 C 208.483 202.040,209.600 203.240,209.600 203.655 C 209.600 203.885,209.960 204.531,210.400 205.091 C 211.184 206.088,211.200 206.714,211.200 237.210 C 211.200 267.230,211.227 268.344,211.964 269.256 L 212.728 270.200 225.501 270.316 C 237.662 270.426,238.319 270.394,239.236 269.651 L 240.200 268.871 240.400 237.336 L 240.600 205.800 241.600 204.417 C 245.124 199.545,250.565 197.288,254.662 199.000 C 255.451 199.330,256.404 199.600,256.779 199.600 C 257.154 199.600,257.883 200.050,258.400 200.600 C 258.917 201.150,259.566 201.600,259.843 201.600 C 260.120 201.600,260.450 201.928,260.578 202.329 C 260.705 202.731,261.177 203.454,261.627 203.936 C 263.055 205.469,263.195 208.601,263.198 238.918 L 263.200 268.436 264.182 269.418 L 265.164 270.400 273.808 270.400 C 282.262 270.400,283.709 270.216,284.494 269.040 C 285.287 267.852,284.830 192.044,284.026 191.614 C 282.956 191.041,116.884 191.059,115.900 191.632 M145.600 197.839 C 139.719 200.030,135.504 204.304,135.640 207.937 C 135.674 208.854,135.718 208.890,135.962 208.200 C 136.117 207.760,136.549 206.731,136.922 205.913 C 137.295 205.095,137.600 204.237,137.600 204.006 C 137.600 203.776,138.158 203.095,138.840 202.494 C 139.523 201.892,140.420 201.087,140.835 200.705 C 143.755 198.016,151.617 197.983,154.400 200.649 C 154.730 200.965,155.585 201.760,156.300 202.415 C 157.015 203.071,157.600 203.787,157.600 204.008 C 157.600 204.228,157.944 205.172,158.364 206.104 C 158.784 207.037,159.220 208.070,159.332 208.400 C 159.445 208.730,159.551 208.520,159.568 207.933 C 159.717 202.899,150.295 196.090,145.600 197.839 M101.200 276.200 C 100.926 276.530,100.473 276.800,100.194 276.800 C 99.330 276.800,99.200 277.842,99.200 284.774 L 99.200 291.483 100.274 292.642 L 101.347 293.800 200.075 293.800 L 298.803 293.800 299.801 292.638 C 300.782 291.496,300.800 291.353,300.800 284.627 L 300.800 277.778 299.559 276.689 L 298.318 275.600 200.008 275.600 C 113.109 275.600,101.640 275.670,101.200 276.200 M299.238 277.227 L 300.400 278.054 300.400 284.413 L 300.400 290.772 299.159 292.186 L 297.917 293.600 200.119 293.600 L 102.320 293.600 100.960 292.240 L 99.600 290.880 99.600 284.473 L 99.600 278.067 100.700 277.246 L 101.800 276.425 199.938 276.413 L 298.077 276.400 299.238 277.227 " stroke="none" fill="#a2a2a2" fill-rule="evenodd"></path></g></svg>